<?xml version="1.0" standalone="no"?><!DOCTYPE svg PUBLIC "-//W3C//DTD SVG 1.1//EN" "http://www.w3.org/Graphics/SVG/1.1/DTD/svg11.dtd"><svg t="1689784644394" class="icon" viewBox="0 0 1024 1024" version="1.1" xmlns="http://www.w3.org/2000/svg" p-id="4941" xmlns:xlink="http://www.w3.org/1999/xlink" width="200" height="200"><path d="M512 0a512 512 0 1 1 0 1024A512 512 0 0 1 512 0z m0 73.142857a438.857143 438.857143 0 1 0 0 877.714286A438.857143 438.857143 0 0 0 512 73.142857z" fill="#d81e06" p-id="4942"></path><path d="M292.571429 292.571429m219.428571 0l0 0q219.428571 0 219.428571 219.428571l0 0q0 219.428571-219.428571 219.428571l0 0q-219.428571 0-219.428571-219.428571l0 0q0-219.428571 219.428571-219.428571Z" fill="#d81e06" p-id="4943"></path></svg>