<?xml version="1.0" standalone="no"?><!DOCTYPE svg PUBLIC "-//W3C//DTD SVG 1.1//EN" "http://www.w3.org/Graphics/SVG/1.1/DTD/svg11.dtd"><svg t="1684932101294" class="icon" viewBox="0 0 1024 1024" version="1.1" xmlns="http://www.w3.org/2000/svg" p-id="3426" xmlns:xlink="http://www.w3.org/1999/xlink" width="200" height="200"><path d="M803.84 522.24H592.896c-38.912 0-70.656 31.744-70.656 70.656v210.944c0 38.912 31.744 70.656 70.656 70.656h210.944c38.912 0 70.656-31.744 70.656-70.656V592.896c0-38.912-31.744-70.656-70.656-70.656z m0 245.76c0 21.504-14.336 34.816-34.816 34.816H627.712c-21.504 0-34.816-14.336-34.816-34.816V627.712c0-21.504 14.336-34.816 34.816-34.816H768c21.504 0 34.816 14.336 34.816 34.816V768z m34.816-598.016H205.824c-17.408 0-34.816 14.336-34.816 34.816v633.856c0 21.504 14.336 34.816 34.816 34.816h210.944c21.504 0 34.816-14.336 34.816-34.816V451.584h387.072c21.504 0 34.816-14.336 34.816-34.816V205.824c1.024-21.504-13.312-35.84-34.816-35.84zM380.928 522.24h-70.656v70.656h70.656v70.656h-70.656v70.656h70.656V768c0 21.504-14.336 34.816-34.816 34.816h-70.656c-21.504 0-34.816-14.336-34.816-34.816V487.424c0-21.504 14.336-34.816 34.816-34.816h70.656c21.504 0 34.816 14.336 34.816 34.816V522.24z m422.912-176.128c0 21.504-14.336 34.816-34.816 34.816h-34.816v-70.656h-70.656v70.656H557.056v-70.656h-70.656v70.656H380.928v-70.656h-70.656v70.656h-34.816c-17.408 0-34.816-14.336-34.816-34.816v-70.656c0-21.504 14.336-34.816 34.816-34.816H768c21.504 0 34.816 14.336 34.816 34.816v70.656z m0 0" p-id="3427"></path></svg>