<?xml version="1.0" standalone="no"?><!DOCTYPE svg PUBLIC "-//W3C//DTD SVG 1.1//EN" "http://www.w3.org/Graphics/SVG/1.1/DTD/svg11.dtd"><svg t="1684930783636" class="icon" viewBox="0 0 1024 1024" version="1.1" xmlns="http://www.w3.org/2000/svg" p-id="2415" xmlns:xlink="http://www.w3.org/1999/xlink" width="200" height="200"><path d="M846.9 511.7v279.9c0 33.6-22.4 56-56 56H231.2c-33.6 0-56-22.4-56-56V231.8c0-33.6 22.4-56 56-56h279.9c33.6 0 56-22.4 56-56s-22.4-56-56-56H231.2c-95.2 0-167.9 72.8-167.9 167.9v559.8c0 95.2 72.8 167.9 167.9 167.9H791c95.2 0 167.9-72.8 167.9-167.9V511.7c0-33.6-22.4-56-56-56s-56 22.4-56 56z m-459 67.2c-22.4-22.4-22.4-56 0-78.4L785.4 103c22.4-22.4 56-22.4 78.4 0 22.4 22.4 22.4 56 0 78.4L466.3 578.9c-22.4 22.4-61.6 22.4-78.4 0z m0 0" fill="#333333" p-id="2416"></path></svg>