<?xml version="1.0" standalone="no"?><!DOCTYPE svg PUBLIC "-//W3C//DTD SVG 1.1//EN" "http://www.w3.org/Graphics/SVG/1.1/DTD/svg11.dtd"><svg t="1684933929929" class="icon" viewBox="0 0 1024 1024" version="1.1" xmlns="http://www.w3.org/2000/svg" p-id="5001" xmlns:xlink="http://www.w3.org/1999/xlink" width="200" height="200"><path d="M960 0c33.1264 0 60.416 25.1904 63.6928 57.4464L1024 64v896a64 64 0 0 1-57.4464 63.6928L960 1024H64a64 64 0 0 1-63.6928-57.4464L0 960V64C0 30.8736 25.1904 3.584 57.4464 0.3072L64 0h896z m-32 96H96v832h832V96z m-99.1232 612.1984v64h-2.0992v61.8496h-64v-64h2.0992v-61.8496h64z m-130.0992 61.8496v64h-64v-64h64z m-128 0v64h-64v-64h64z m-128 0v64h-64v-64h64z m-188.8256-3.1744v3.1744h60.8256v64h-64v-3.1744H189.952v-64h64z m232.96-302.7968l94.3104 72.3456c-11.5712 7.168-20.3264 18.0736-24.7808 30.976a67.584 67.584 0 0 0 5.12 41.3184L266.24 765.5424l-9.216 1.8432 0.1536-0.0512L486.912 464.0768z m-232.96 174.7968v64H189.952v-64h64z m574.976-58.6752v64h-64v-64h64zM253.952 510.8736v64H189.952v-64h64z m246.1696-6.2464a20.736 20.736 0 0 0-17.92 23.04 20.992 20.992 0 0 0 23.552 18.0736 20.736 20.736 0 0 0-5.632-41.1136z m112.2816-194.048l88.832 68.7616c2.1504 1.7408 2.56 4.864 0.8192 7.0656l-106.496 136.9088a5.0688 5.0688 0 0 1-7.0656 0.8704l-82.432-63.7952-6.4-5.0176a5.0688 5.0688 0 0 1-0.8704-7.0144v0.1024l106.5472-137.0624a5.0688 5.0688 0 0 1 7.0656-0.8192z m216.4736 141.6192v64h-64v-64h64zM253.952 382.8736v64H189.952v-64h64z m574.976-58.6752v64h-64v-64h64zM253.952 195.1744v123.6992H189.952V195.1232h64z m512 0v1.024h62.976v64h-64v-1.024h-62.976v-64h64z m-384 0v64H317.952v-64h64z m128 0v64H445.952v-64h64z m128 0v64h-64v-64h64z" fill="#2c2c2c" p-id="5002"></path></svg>