<?xml version="1.0" standalone="no"?><!DOCTYPE svg PUBLIC "-//W3C//DTD SVG 1.1//EN" "http://www.w3.org/Graphics/SVG/1.1/DTD/svg11.dtd"><svg t="1684327642597" class="icon" viewBox="0 0 1024 1024" version="1.1" xmlns="http://www.w3.org/2000/svg" p-id="8577" xmlns:xlink="http://www.w3.org/1999/xlink" width="200" height="200"><path d="M377.29 567.94H176.32c-45.77 0-83 37.23-83 83v213.54c0 45.77 37.23 83 83 83h200.97c45.77 0 83-37.23 83-83V650.94c0-45.76-37.23-83-83-83z m-3 293.54H179.32V653.94h194.97v207.54z" p-id="8578"></path><path d="M787.68 76.52H236.32c-78.85 0-143 64.15-143 143v262.61c0 23.75 19.25 43 43 43s43-19.25 43-43V219.52c0-31.43 25.57-57 57-57h551.36c31.43 0 57 25.57 57 57v584.96c0 31.43-25.57 57-57 57H542.2c-23.75 0-43 19.25-43 43s19.25 43 43 43h245.48c78.85 0 143-64.15 143-143V219.52c0-78.85-64.15-143-143-143z" p-id="8579"></path><path d="M708.1 251.72L551.95 407.86V279.73c0-23.75-19.25-43-43-43s-43 19.25-43 43v183.54c0 24.63 10.8 46.78 27.9 62 0.25 0.26 0.48 0.52 0.74 0.77 3.32 3.32 7.05 5.97 11.02 7.98a82.505 82.505 0 0 0 43.34 12.25h170.97c23.75 0 43-19.25 43-43s-19.25-43-43-43h-98.76L768.9 312.53c16.79-16.79 16.79-44.02 0-60.81-8.4-8.4-19.4-12.59-30.41-12.59s-22 4.19-30.39 12.59z" p-id="8580"></path></svg>