<?xml version="1.0" standalone="no"?><!DOCTYPE svg PUBLIC "-//W3C//DTD SVG 1.1//EN" "http://www.w3.org/Graphics/SVG/1.1/DTD/svg11.dtd"><svg t="1684580840569" class="icon" viewBox="0 0 1024 1024" version="1.1" xmlns="http://www.w3.org/2000/svg" p-id="2482" xmlns:xlink="http://www.w3.org/1999/xlink" width="200" height="200"><path d="M394.013 667.648c-19.342 0-34.589 15.133-34.589 34.589 0 19.342 15.133 34.588 34.589 34.588h83.4v49.38c0 19.342 15.132 34.589 34.588 34.589 19 0 34.588-15.474 34.588-34.589v-49.493h83.4c19.341 0 34.588-15.133 34.588-34.589 0-19.342-15.133-34.588-34.589-34.588H546.59V636.36h83.4c19.341 0 34.588-15.133 34.588-34.589 0-19.342-15.133-34.588-34.589-34.588H557.17l80.669-81.807c6.485-6.144 10.24-14.45 10.354-23.438 0.227-9.102-3.414-18.204-9.899-24.917-5.916-6.827-14.905-10.695-24.69-10.695-9.33 0-17.408 3.413-24.348 10.354l-77.483 78.165-77.824-77.141c-5.916-6.713-14.791-10.582-24.576-10.582-9.102 0-17.18 3.3-23.893 9.899-6.827 5.916-10.695 14.905-10.695 24.69 0 9.33 3.413 17.408 10.24 24.234l81.237 81.238h-72.477c-19.342 0-34.588 15.132-34.588 34.588 0 19.342 15.132 34.589 34.588 34.589h83.4v31.175h-83.172z" p-id="2483"></path><path d="M967.453 689.949c-3.3-86.699-38.343-170.098-103.993-248.035-51.769-61.326-111.502-105.927-152.69-132.665 31.971-35.385 53.475-76.8 59.05-113.891 5.007-31.744-1.934-60.871-20.138-83.968-22.87-29.582-50.404-35.84-69.518-35.84-20.366 0-41.757 6.827-62.01 19.911C598.7 69.747 564.68 39.482 512 39.482h-1.707c-54.613 0.797-88.519 34.93-104.22 55.752-21.504-12.971-42.098-19.57-61.44-19.57-19.114 0-46.649 6.144-69.404 35.726-18.66 22.983-25.942 51.996-20.935 84.082 7.737 49.72 40.05 92.387 59.05 113.89-33.45 21.277-97.394 66.674-152.803 132.324C94.778 519.624 59.848 603.25 56.548 690.063c-3.072 97.62 20.48 173.283 69.86 225.053 60.302 62.691 140.288 69.404 171.918 69.404h427.576c31.63 0 111.616-6.713 171.805-69.404 50.062-51.77 73.5-127.545 69.746-225.166zM700.871 185.23c-5.348 38.685-40.505 80.1-62.009 97.735l-2.73-0.796h-0.91c-1.025-0.341-2.618-0.683-4.552-0.683H393.216c-2.73 0-5.006 0.683-6.713 1.252-0.569 0.227-1.251 0.341-1.934 0.569-21.39-17.295-56.889-59.051-62.35-98.077v-0.341c-2.276-13.199-0.342-23.097 6.144-31.29 7.85-9.443 12.97-9.443 15.473-9.443 15.02 0 37.32 17.408 45.967 26.852 6.485 7.395 15.473 11.491 25.486 11.491 2.275 0 4.096-0.455 5.234-0.682h0.455l1.251-0.228c11.492-2.276 20.708-10.126 25.373-21.618l0.227-0.569c0.228-0.455 18.887-50.062 62.692-50.63H512c43.35 0 62.35 47.786 63.374 50.517 3.414 10.808 12.63 19.228 24.235 21.959 3.413 1.251 6.371 1.251 8.192 1.251 8.875 0 17.977-3.982 25.031-11.036l0.341-0.342c8.647-9.443 30.948-26.965 46.08-26.965 4.096 0 8.761 0.683 15.133 8.989 6.144 8.42 8.192 18.545 6.485 32.085zM382.635 348.387l0.91 0.228a8.38 8.38 0 0 1 1.593 0.455c2.617 0.682 5.461 1.479 8.761 1.479H631.24c3.868 0 7.168-1.024 9.671-1.82h0.114l0.455 0.227c11.947 6.485 74.41 41.756 135.737 102.286 77.255 76.231 117.987 157.696 120.946 241.89 2.845 78.166-14.108 136.876-50.29 174.422-41.756 43.122-99.441 47.787-122.31 47.787H298.097c-22.87 0-80.555-4.665-122.311-47.787-36.181-37.66-53.134-96.597-50.404-175.218 7.851-198.997 230.627-329.16 257.251-343.95z" p-id="2484"></path></svg>