<?xml version="1.0" standalone="no"?><!DOCTYPE svg PUBLIC "-//W3C//DTD SVG 1.1//EN" "http://www.w3.org/Graphics/SVG/1.1/DTD/svg11.dtd"><svg t="1684327876241" class="icon" viewBox="0 0 1024 1024" version="1.1" xmlns="http://www.w3.org/2000/svg" p-id="13685" xmlns:xlink="http://www.w3.org/1999/xlink" width="200" height="200"><path d="M512.01 958.78c-60.31 0-118.86-11.83-174.01-35.16-53.23-22.52-101.03-54.74-142.06-95.77-41.03-41.03-73.25-88.82-95.77-142.06-23.33-55.15-35.15-113.7-35.15-174.01s11.83-118.86 35.15-174.01c22.52-53.24 54.74-101.03 95.77-142.06 41.03-41.03 88.83-73.25 142.06-95.77 55.15-23.33 113.7-35.15 174.01-35.15 60.31 0 118.86 11.83 174.01 35.15 53.24 22.52 101.03 54.74 142.06 95.77 41.03 41.03 73.25 88.83 95.77 142.06C947.17 392.93 959 451.47 959 511.79c0 60.31-11.83 118.86-35.16 174.01-22.51 53.23-54.74 101.03-95.77 142.06-41.03 41.03-88.82 73.25-142.06 95.77-55.14 23.32-113.69 35.15-174 35.15z m0-813.99c-49.55 0-97.61 9.7-142.85 28.83-43.7 18.48-82.95 44.95-116.66 78.65-33.71 33.71-60.17 72.96-78.65 116.66-19.13 45.24-28.83 93.3-28.83 142.85s9.7 97.61 28.83 142.85c18.48 43.7 44.95 82.95 78.65 116.66 33.71 33.71 72.96 60.17 116.66 78.65 45.24 19.13 93.3 28.83 142.85 28.83s97.61-9.7 142.85-28.83c43.7-18.48 82.95-44.95 116.66-78.65 33.71-33.71 60.17-72.96 78.65-116.65C869.3 609.39 879 561.33 879 511.79s-9.7-97.61-28.83-142.84c-18.48-43.7-44.95-82.95-78.65-116.66-33.71-33.71-72.96-60.17-116.66-78.65-45.24-19.14-93.3-28.85-142.85-28.85z" p-id="13686"></path><path d="M512.06 513.22m-250 0a250 250 0 1 0 500 0 250 250 0 1 0-500 0Z" p-id="13687"></path></svg>