<?xml version="1.0" standalone="no"?><!DOCTYPE svg PUBLIC "-//W3C//DTD SVG 1.1//EN" "http://www.w3.org/Graphics/SVG/1.1/DTD/svg11.dtd"><svg t="1684938904940" class="icon" viewBox="0 0 1024 1024" version="1.1" xmlns="http://www.w3.org/2000/svg" p-id="7849" xmlns:xlink="http://www.w3.org/1999/xlink" width="200" height="200"><path d="M632.832 510.272c18.944 0 35.904 8.128 47.808 20.864 11.008 11.776 17.728 33.216 17.536 50.56h110.72l-1.152 357.696H448.192l0.256-94.656v-17.28l3.52 0.256a72.512 72.512 0 1 0 0.448-145.088l-3.456 0.192v-10.304l0.384-90.88h117.568c0.128-36.16 29.568-71.488 65.92-71.36zM175.68 581.632a72.128 72.128 0 0 0 72.32 72.32c19.2 0.128 36.608-7.36 49.6-19.52 14.208-13.184 23.104-32 23.104-52.8h103.872l-0.384 108.416c1.152-0.064 2.24-0.192 3.456-0.192a65.664 65.664 0 0 1-0.384 131.328l-3.456-0.192-0.448 118.4H64l1.088-357.76z m248.064-387.84V304.64l-3.52-0.128a72.64 72.64 0 0 0 0 145.28l3.52-0.128v103.872H313.856l0.128 3.52a65.664 65.664 0 1 1-131.456 0l0.128-3.52H64V193.92h359.68zM636.544 64L960 220.608l-156.672 323.584-84.16-40.704-15.552-7.488A72.512 72.512 0 1 0 574.72 429.76l-1.344 3.2-9.28-4.48-84.288-40.96 51.328-105.92c-1.088-0.448-2.112-0.768-3.2-1.408a65.664 65.664 0 0 1 57.216-118.144c1.024 0.448 2.048 1.088 3.008 1.664L636.544 64z" fill="#2c2c2c" p-id="7850"></path></svg>