<?xml version="1.0" standalone="no"?><!DOCTYPE svg PUBLIC "-//W3C//DTD SVG 1.1//EN" "http://www.w3.org/Graphics/SVG/1.1/DTD/svg11.dtd"><svg t="1684932246936" class="icon" viewBox="0 0 1024 1024" version="1.1" xmlns="http://www.w3.org/2000/svg" p-id="3577" xmlns:xlink="http://www.w3.org/1999/xlink" width="200" height="200"><path d="M990.135282 185.216664h-92.864156v647.746674h91.776903a29.099994 29.099994 0 0 1 2.686154 58.136031l-2.110549 0.063956h-92.288552v102.585473a29.867466 29.867466 0 0 1-29.48373 29.611642 29.355818 29.355818 0 0 1-29.355818-29.099994v-103.033165H184.481169l0.255824 103.033165a29.931422 29.931422 0 0 1-29.995378 29.036038 29.291862 29.291862 0 0 1-29.419774-29.099994v-103.033165H32.969334a27.692961 27.692961 0 0 1-29.419774-29.099994 29.675598 29.675598 0 0 1 29.419774-29.036037h92.352507V185.216664H32.457685a25.710324 25.710324 0 0 1-28.908125-27.373181 29.419774 29.419774 0 0 1 29.419774-29.099994h92.288551V29.16395A27.884829 27.884829 0 0 1 151.543814 0h3.197801c16.372744 1.279121 28.780214 15.541315 27.692961 31.978015l0.255824 96.82943h655.86909V29.16395a27.692961 27.692961 0 0 1 26.221973-29.16395h3.133845a29.739554 29.739554 0 0 1 29.48373 29.099994v99.643495h91.776904a27.756917 27.756917 0 0 1 29.419773 29.036038 25.070764 25.070764 0 0 1-28.460433 27.437137z m-807.444882 0l1.534945 647.746674h654.206233V185.216664H182.6904z m566.266692 386.294422c-12.151646 2.878021-12.151646 2.878021-83.142839-67.217788l-151.192056 149.273375c71.566798 70.607457 71.566798 70.607457 65.171195 81.991631a16.4367 16.4367 0 0 1-17.843732 12.151645l-279.295984 2.878022a29.739554 29.739554 0 0 1-15.029668-2.878022 14.965711 14.965711 0 0 1-5.756042-12.151645V463.233527a19.698457 19.698457 0 0 1 12.151646-17.651864 26.477797 26.477797 0 0 1 20.721753 2.878021l68.049216 64.339766L517.116482 360.136406 452.009244 292.918618a18.227469 18.227469 0 0 1-2.878022-20.338017 20.274062 20.274062 0 0 1 17.907689-12.151646h276.354006a19.890325 19.890325 0 0 1 20.78571 18.867029V553.859222a16.500656 16.500656 0 0 1-15.093623 17.587908h-0.127912z" fill="#2c2c2c" p-id="3578"></path></svg>