<?xml version="1.0" standalone="no"?><!DOCTYPE svg PUBLIC "-//W3C//DTD SVG 1.1//EN" "http://www.w3.org/Graphics/SVG/1.1/DTD/svg11.dtd"><svg t="1684083321523" class="icon" viewBox="0 0 1024 1024" version="1.1" xmlns="http://www.w3.org/2000/svg" p-id="2529" xmlns:xlink="http://www.w3.org/1999/xlink" width="200" height="200"><path d="M388.408205 519.166862q53.889605 0 136.657928-49.989271-35.005491-20.558007-70.547278-20.558007-107.762958 0-107.762959 47.779083 0 22.768196 41.652309 22.768195zM185.103333 991.334709q104.431424 0 288.852182-299.399334-101.083638 17.226472-184.420758 54.442152-82.752071 37.768227-128.873512 86.099858Q114.588558 880.776512 114.588558 926.329154q0 64.989303 70.531027 64.989303zM867.791668 39.247104q-19.436661 0-37.768227 30.000063-18.331566 29.983812-29.431265 79.989335 28.32617-12.221044 58.878781-41.116013 31.105158-29.431265 31.105158-46.641486 0-22.2319-22.784447-22.231899z m-414.377908 378.819869q69.442184 0 110.541946 21.126806 113.87348-90.552738 180.536677-243.29954l-26.115982 2.210189H693.365514q-64.436756 0-152.194255-49.989272-33.315347-18.331566-65.005555-32.210252-31.641454-14.447485-66.094397-14.447485-64.420505 0-110.525695 53.320807-46.10519 52.768259-46.105189 135.536581l4.436629 54.442152q0 21.663101-15.000032 21.663101-22.768196 0-22.768196-79.436788 0-123.868084 72.773719-203.857419Q365.64001 2.600222 475.06061 2.600222q35.558038 0 61.657768 7.784415 26.115982 7.215617 48.33163 19.989208 22.215648 12.221044 41.668561 29.447517 19.989208 16.657673 41.652309 34.989239 41.116013 36.110586 92.210379 62.762864 24.994636-75.536455 50.541819-112.199588Q836.670259 8.125694 873.333392 8.125694q24.994636 0 36.663133 13.878686 12.221044 13.326139 12.221044 32.779051 0 33.315347-38.320774 71.099826-37.784479 37.21568-93.884273 59.983875-79.420536 170.542073-198.851992 272.747056 36.110586 24.994636 55.547247 63.867958 19.436661 38.889573 19.436661 79.436788 53.337058-30.552611 134.431487-116.099921 37.21568-40.547215 65.54185-59.431329 28.878718-18.884114 54.9947-22.215648l18.331566 5.557975q-37.784479 21.663101-111.64704 95.541914l-78.331694 78.315442q-37.768227 37.768227-91.089033 69.442184-31.105158 81.094429-125.541977 174.96245-93.868021 93.868021-189.409935 144.978639-94.989367 51.110617-161.636312 51.110617-51.110617 0-77.210348-27.789875Q77.909174 968.566513 77.909174 923.013871q0-81.094429 114.978574-157.199683t300.504428-111.094493q39.44212-68.320838 39.442121-128.873512v-13.326139l-2.226441-11.668497q-80.541882 47.779083-145.531185 47.779083-74.983907 0-74.983908-49.989271 0-36.663133 39.994668-58.342486 40.547215-22.199397 103.310078-22.199397z" fill="#E35302" p-id="2530"></path></svg>